<svg width="46" height="26" viewBox="0 0 46 26" fill="none" xmlns="http://www.w3.org/2000/svg">
<path d="M12.576 1.128C12.7467 0.807999 13.0347 0.583999 13.44 0.455999C13.8453 0.327998 14.3787 0.263998 15.04 0.263998C15.7227 0.263998 16.2667 0.327998 16.672 0.455999C17.0773 0.583999 17.3547 0.807999 17.504 1.128C17.6747 1.448 17.7707 1.736 17.792 1.992C17.8347 2.22667 17.856 2.58933 17.856 3.08V22.184C17.856 22.6747 17.8347 23.048 17.792 23.304C17.7707 23.5387 17.6747 23.8053 17.504 24.104C17.184 24.68 16.2773 24.968 14.784 24.968C13.312 24.968 12.4907 24.4453 12.32 23.4C11.424 24.424 10.176 24.936 8.576 24.936C6.656 24.936 4.90667 24.104 3.328 22.44C1.74933 20.7547 0.96 18.8027 0.96 16.584C0.96 14.344 1.74933 12.3813 3.328 10.696C4.928 9.01067 6.67733 8.168 8.576 8.168C10.1547 8.168 11.3813 8.70133 12.256 9.768V3.048C12.256 2.55733 12.2667 2.19467 12.288 1.96C12.3307 1.704 12.4267 1.42666 12.576 1.128ZM7.392 18.504C7.94667 19.08 8.61867 19.368 9.408 19.368C10.1973 19.368 10.848 19.08 11.36 18.504C11.8933 17.928 12.16 17.2987 12.16 16.616C12.16 15.912 11.904 15.2613 11.392 14.664C10.9013 14.0667 10.2293 13.768 9.376 13.768C8.52267 13.768 7.84 14.0667 7.328 14.664C6.816 15.24 6.56 15.88 6.56 16.584C6.56 17.288 6.83733 17.928 7.392 18.504ZM19.925 16.584C19.925 14.024 20.821 11.912 22.613 10.248C24.405 8.584 26.453 7.752 28.757 7.752C31.061 7.752 33.0983 8.584 34.869 10.248C36.6397 11.8907 37.525 13.992 37.525 16.552C37.525 18.3227 37.0663 19.9013 36.149 21.288C35.2317 22.6533 34.1117 23.6667 32.789 24.328C31.4877 24.968 30.133 25.288 28.725 25.288C27.317 25.288 25.9517 24.9467 24.629 24.264C23.3063 23.56 22.1863 22.536 21.269 21.192C20.373 19.8267 19.925 18.2907 19.925 16.584ZM26.613 18.888C27.2957 19.4 27.989 19.656 28.693 19.656C29.397 19.656 30.101 19.3893 30.805 18.856C31.509 18.3227 31.861 17.5333 31.861 16.488C31.861 15.4427 31.5303 14.664 30.869 14.152C30.2077 13.64 29.493 13.384 28.725 13.384C27.957 13.384 27.2423 13.6507 26.581 14.184C25.9197 14.7173 25.589 15.5067 25.589 16.552C25.589 17.576 25.9303 18.3547 26.613 18.888Z" fill="#333333"/>
<path d="M44.5525 19.72C44.9152 20.0827 45.0965 20.8293 45.0965 21.96V22.088C45.0965 22.6 45.0752 22.984 45.0325 23.24C45.0112 23.4747 44.9045 23.7627 44.7125 24.104C44.3925 24.7227 43.5818 25.032 42.2805 25.032C41.0005 25.032 40.1472 24.8293 39.7205 24.424C39.3152 24.0187 39.1125 23.2507 39.1125 22.12V21.992C39.1125 21.5013 39.1232 21.128 39.1445 20.872C39.1872 20.616 39.2938 20.328 39.4645 20.008C39.7845 19.368 40.5845 19.048 41.8645 19.048C43.1658 19.048 44.0618 19.272 44.5525 19.72Z" fill="#9300ED"/>
</svg>
