<svg width="56" height="32" viewBox="0 0 56 32" fill="none" xmlns="http://www.w3.org/2000/svg">
<path d="M15.22 1.16C15.4333 0.759998 15.7933 0.479999 16.3 0.319999C16.8067 0.159998 17.4733 0.0799975 18.3 0.0799975C19.1533 0.0799975 19.8333 0.159998 20.34 0.319999C20.8467 0.479999 21.1933 0.759998 21.38 1.16C21.5933 1.56 21.7133 1.92 21.74 2.24C21.7933 2.53333 21.82 2.98667 21.82 3.6V27.48C21.82 28.0933 21.7933 28.56 21.74 28.88C21.7133 29.1733 21.5933 29.5067 21.38 29.88C20.98 30.6 19.8467 30.96 17.98 30.96C16.14 30.96 15.1133 30.3067 14.9 29C13.78 30.28 12.22 30.92 10.22 30.92C7.82 30.92 5.63333 29.88 3.66 27.8C1.68667 25.6933 0.7 23.2533 0.7 20.48C0.7 17.68 1.68667 15.2267 3.66 13.12C5.66 11.0133 7.84667 9.96 10.22 9.96C12.1933 9.96 13.7267 10.6267 14.82 11.96V3.56C14.82 2.94666 14.8333 2.49333 14.86 2.2C14.9133 1.88 15.0333 1.53333 15.22 1.16ZM8.74 22.88C9.43333 23.6 10.2733 23.96 11.26 23.96C12.2467 23.96 13.06 23.6 13.7 22.88C14.3667 22.16 14.7 21.3733 14.7 20.52C14.7 19.64 14.38 18.8267 13.74 18.08C13.1267 17.3333 12.2867 16.96 11.22 16.96C10.1533 16.96 9.3 17.3333 8.66 18.08C8.02 18.8 7.7 19.6 7.7 20.48C7.7 21.36 8.04667 22.16 8.74 22.88ZM24.4063 20.48C24.4063 17.28 25.5263 14.64 27.7663 12.56C30.0063 10.48 32.5663 9.44 35.4463 9.44C38.3263 9.44 40.8729 10.48 43.0863 12.56C45.2996 14.6133 46.4063 17.24 46.4063 20.44C46.4063 22.6533 45.8329 24.6267 44.6863 26.36C43.5396 28.0667 42.1396 29.3333 40.4863 30.16C38.8596 30.96 37.1663 31.36 35.4063 31.36C33.6463 31.36 31.9396 30.9333 30.2863 30.08C28.6329 29.2 27.2329 27.92 26.0863 26.24C24.9663 24.5333 24.4063 22.6133 24.4063 20.48ZM32.7663 23.36C33.6196 24 34.4863 24.32 35.3663 24.32C36.2463 24.32 37.1263 23.9867 38.0063 23.32C38.8863 22.6533 39.3263 21.6667 39.3263 20.36C39.3263 19.0533 38.9129 18.08 38.0863 17.44C37.2596 16.8 36.3663 16.48 35.4063 16.48C34.4463 16.48 33.5529 16.8133 32.7263 17.48C31.8996 18.1467 31.4863 19.1333 31.4863 20.44C31.4863 21.72 31.9129 22.6933 32.7663 23.36Z" fill="#333333"/>
<path d="M55.1906 24.4C55.644 24.8533 55.8706 25.7867 55.8706 27.2V27.36C55.8706 28 55.844 28.48 55.7906 28.8C55.764 29.0933 55.6306 29.4533 55.3906 29.88C54.9906 30.6533 53.9773 31.04 52.3506 31.04C50.7506 31.04 49.684 30.7867 49.1506 30.28C48.644 29.7733 48.3906 28.8133 48.3906 27.4V27.24C48.3906 26.6267 48.404 26.16 48.4306 25.84C48.484 25.52 48.6173 25.16 48.8306 24.76C49.2306 23.96 50.2306 23.56 51.8306 23.56C53.4573 23.56 54.5773 23.84 55.1906 24.4Z" fill="#9300ED"/>
</svg>
