<svg width="25" height="25" viewBox="0 0 25 25" fill="none" xmlns="http://www.w3.org/2000/svg">
<path d="M17 9.75C17 10.9435 16.5259 12.0881 15.682 12.932C14.8381 13.7759 13.6935 14.25 12.5 14.25C11.3065 14.25 10.1619 13.7759 9.31802 12.932C8.47411 12.0881 8 10.9435 8 9.75C8 8.55653 8.47411 7.41193 9.31802 6.56802C10.1619 5.72411 11.3065 5.25 12.5 5.25C13.6935 5.25 14.8381 5.72411 15.682 6.56802C16.5259 7.41193 17 8.55653 17 9.75Z" fill="#333333"/>
<path fill-rule="evenodd" clip-rule="evenodd" d="M0.5 12.75C0.5 9.5674 1.76428 6.51516 4.01472 4.26472C6.26516 2.01428 9.3174 0.75 12.5 0.75C15.6826 0.75 18.7348 2.01428 20.9853 4.26472C23.2357 6.51516 24.5 9.5674 24.5 12.75C24.5 15.9326 23.2357 18.9848 20.9853 21.2353C18.7348 23.4857 15.6826 24.75 12.5 24.75C9.3174 24.75 6.26516 23.4857 4.01472 21.2353C1.76428 18.9848 0.5 15.9326 0.5 12.75ZM12.5 2.25C10.5227 2.25011 8.58555 2.80854 6.9116 3.86104C5.23766 4.91354 3.89492 6.41732 3.03795 8.19929C2.18097 9.98127 1.84458 11.969 2.0675 13.9337C2.29042 15.8985 3.06358 17.7603 4.298 19.305C5.363 17.589 7.7075 15.75 12.5 15.75C17.2925 15.75 19.6355 17.5875 20.702 19.305C21.9364 17.7603 22.7096 15.8985 22.9325 13.9337C23.1554 11.969 22.819 9.98127 21.9621 8.19929C21.1051 6.41732 19.7623 4.91354 18.0884 3.86104C16.4145 2.80854 14.4773 2.25011 12.5 2.25Z" fill="#333333"/>
</svg>
