<svg width="47" height="27" viewBox="0 0 47 27" fill="none" xmlns="http://www.w3.org/2000/svg">
<path d="M12.969 1.382C13.145 1.052 13.442 0.820999 13.86 0.688999C14.278 0.556998 14.828 0.490998 15.51 0.490998C16.214 0.490998 16.775 0.556998 17.193 0.688999C17.611 0.820999 17.897 1.052 18.051 1.382C18.227 1.712 18.326 2.009 18.348 2.273C18.392 2.515 18.414 2.889 18.414 3.395V23.096C18.414 23.602 18.392 23.987 18.348 24.251C18.326 24.493 18.227 24.768 18.051 25.076C17.721 25.67 16.786 25.967 15.246 25.967C13.728 25.967 12.881 25.428 12.705 24.35C11.781 25.406 10.494 25.934 8.844 25.934C6.864 25.934 5.06 25.076 3.432 23.36C1.804 21.622 0.99 19.609 0.99 17.321C0.99 15.011 1.804 12.987 3.432 11.249C5.082 9.511 6.886 8.642 8.844 8.642C10.472 8.642 11.737 9.192 12.639 10.292V3.362C12.639 2.856 12.65 2.482 12.672 2.24C12.716 1.976 12.815 1.69 12.969 1.382ZM7.623 19.301C8.195 19.895 8.888 20.192 9.702 20.192C10.516 20.192 11.187 19.895 11.715 19.301C12.265 18.707 12.54 18.058 12.54 17.354C12.54 16.628 12.276 15.957 11.748 15.341C11.242 14.725 10.549 14.417 9.669 14.417C8.789 14.417 8.085 14.725 7.557 15.341C7.029 15.935 6.765 16.595 6.765 17.321C6.765 18.047 7.051 18.707 7.623 19.301ZM20.5477 17.321C20.5477 14.681 21.4717 12.503 23.3197 10.787C25.1677 9.071 27.2797 8.213 29.6557 8.213C32.0317 8.213 34.1327 9.071 35.9587 10.787C37.7847 12.481 38.6977 14.648 38.6977 17.288C38.6977 19.114 38.2247 20.742 37.2787 22.172C36.3327 23.58 35.1777 24.625 33.8137 25.307C32.4717 25.967 31.0747 26.297 29.6227 26.297C28.1707 26.297 26.7627 25.945 25.3987 25.241C24.0347 24.515 22.8797 23.459 21.9337 22.073C21.0097 20.665 20.5477 19.081 20.5477 17.321ZM27.4447 19.697C28.1487 20.225 28.8637 20.489 29.5897 20.489C30.3157 20.489 31.0417 20.214 31.7677 19.664C32.4937 19.114 32.8567 18.3 32.8567 17.222C32.8567 16.144 32.5157 15.341 31.8337 14.813C31.1517 14.285 30.4147 14.021 29.6227 14.021C28.8307 14.021 28.0937 14.296 27.4117 14.846C26.7297 15.396 26.3887 16.21 26.3887 17.288C26.3887 18.344 26.7407 19.147 27.4447 19.697Z" fill="#333333"/>
<path d="M45.9448 20.555C46.3188 20.929 46.5058 21.699 46.5058 22.865V22.997C46.5058 23.525 46.4838 23.921 46.4398 24.185C46.4178 24.427 46.3078 24.724 46.1098 25.076C45.7798 25.714 44.9438 26.033 43.6018 26.033C42.2818 26.033 41.4018 25.824 40.9618 25.406C40.5438 24.988 40.3348 24.196 40.3348 23.03V22.898C40.3348 22.392 40.3458 22.007 40.3678 21.743C40.4118 21.479 40.5218 21.182 40.6978 20.852C41.0278 20.192 41.8528 19.862 43.1728 19.862C44.5148 19.862 45.4388 20.093 45.9448 20.555Z" fill="#9300ED"/>
</svg>
