<svg width="25" height="25" viewBox="0 0 25 25" fill="none" xmlns="http://www.w3.org/2000/svg">
<path d="M20.749 12.8201V11.6726L22.189 10.4126C22.4544 10.1786 22.6286 9.85833 22.6808 9.50836C22.7329 9.15839 22.6597 8.80125 22.474 8.50006L20.704 5.50006C20.5724 5.27226 20.3833 5.08305 20.1556 4.95141C19.9279 4.81977 19.6695 4.75033 19.4065 4.75006C19.2435 4.74881 19.0813 4.77414 18.9265 4.82506L17.104 5.44006C16.7893 5.23097 16.4611 5.04305 16.1215 4.87756L15.739 2.98756C15.6704 2.64226 15.4825 2.33209 15.2083 2.11134C14.9341 1.89058 14.5909 1.77332 14.239 1.78006H10.729C10.377 1.77332 10.0339 1.89058 9.75963 2.11134C9.4854 2.33209 9.29755 2.64226 9.22897 2.98756L8.84647 4.87756C8.50442 5.04301 8.1737 5.23092 7.85647 5.44006L6.07147 4.79506C5.91494 4.75428 5.75285 4.73908 5.59147 4.75006C5.32842 4.75033 5.07008 4.81977 4.84234 4.95141C4.61461 5.08305 4.42549 5.27226 4.29397 5.50006L2.52397 8.50006C2.34891 8.8008 2.28386 9.15305 2.33996 9.49648C2.39605 9.83991 2.56981 10.1532 2.83147 10.3826L4.24897 11.6801V12.8276L2.83147 14.0876C2.56242 14.3186 2.38391 14.6374 2.32762 14.9875C2.27133 15.3376 2.34089 15.6964 2.52397 16.0001L4.29397 19.0001C4.42549 19.2279 4.61461 19.4171 4.84234 19.5487C5.07008 19.6804 5.32842 19.7498 5.59147 19.7501C5.75448 19.7513 5.91661 19.726 6.07147 19.6751L7.89397 19.0601C8.20862 19.2692 8.53685 19.4571 8.87647 19.6226L9.25897 21.5126C9.32755 21.8579 9.5154 22.168 9.78963 22.3888C10.0639 22.6095 10.407 22.7268 10.759 22.7201H14.299C14.6509 22.7268 14.9941 22.6095 15.2683 22.3888C15.5425 22.168 15.7304 21.8579 15.799 21.5126L16.1815 19.6226C16.5235 19.4571 16.8542 19.2692 17.1715 19.0601L18.9865 19.6751C19.1413 19.726 19.3035 19.7513 19.4665 19.7501C19.7295 19.7498 19.9879 19.6804 20.2156 19.5487C20.4433 19.4171 20.6324 19.2279 20.764 19.0001L22.474 16.0001C22.649 15.6993 22.7141 15.3471 22.658 15.0036C22.6019 14.6602 22.4281 14.347 22.1665 14.1176L20.749 12.8201ZM19.4065 18.2501L16.834 17.3801C16.2318 17.8901 15.5435 18.2889 14.8015 18.5576L14.269 21.2501H10.729L10.1965 18.5876C9.46029 18.3112 8.77576 17.9132 8.17147 17.4101L5.59147 18.2501L3.82147 15.2501L5.86147 13.4501C5.72279 12.6737 5.72279 11.8789 5.86147 11.1026L3.82147 9.25006L5.59147 6.25006L8.16397 7.12006C8.76617 6.60998 9.45442 6.21125 10.1965 5.94256L10.729 3.25006H14.269L14.8015 5.91256C15.5377 6.18888 16.2222 6.58692 16.8265 7.09006L19.4065 6.25006L21.1765 9.25006L19.1365 11.0501C19.2751 11.8264 19.2751 12.6212 19.1365 13.3976L21.1765 15.2501L19.4065 18.2501Z" fill="#333333"/>
<path d="M12.5 16.75C11.61 16.75 10.74 16.4861 9.99994 15.9916C9.25991 15.4971 8.68314 14.7943 8.34254 13.9721C8.00195 13.1498 7.91283 12.245 8.08647 11.3721C8.2601 10.4992 8.68868 9.69736 9.31802 9.06802C9.94736 8.43868 10.7492 8.0101 11.6221 7.83647C12.495 7.66283 13.3998 7.75195 14.2221 8.09254C15.0443 8.43314 15.7471 9.00991 16.2416 9.74994C16.7361 10.49 17 11.36 17 12.25C17.006 12.8426 16.8937 13.4305 16.6697 13.9792C16.4457 14.5279 16.1145 15.0263 15.6954 15.4454C15.2763 15.8645 14.7779 16.1957 14.2292 16.4197C13.6805 16.6437 13.0926 16.756 12.5 16.75ZM12.5 9.25C12.1035 9.24077 11.7093 9.31205 11.3411 9.45954C10.973 9.60704 10.6386 9.82768 10.3581 10.1081C10.0777 10.3886 9.85704 10.723 9.70954 11.0911C9.56205 11.4593 9.49077 11.8535 9.5 12.25C9.49077 12.6465 9.56205 13.0407 9.70954 13.4089C9.85704 13.777 10.0777 14.1115 10.3581 14.3919C10.6386 14.6723 10.973 14.893 11.3411 15.0405C11.7093 15.188 12.1035 15.2592 12.5 15.25C12.8965 15.2592 13.2907 15.188 13.6589 15.0405C14.027 14.893 14.3615 14.6723 14.6419 14.3919C14.9223 14.1115 15.143 13.777 15.2905 13.4089C15.438 13.0407 15.5092 12.6465 15.5 12.25C15.5092 11.8535 15.438 11.4593 15.2905 11.0911C15.143 10.723 14.9223 10.3886 14.6419 10.1081C14.3615 9.82768 14.027 9.60704 13.6589 9.45954C13.2907 9.31205 12.8965 9.24077 12.5 9.25Z" fill="#333333"/>
</svg>
